<?xml version="1.0" encoding="UTF-8" standalone="no"?>
<svg
   version="1.1"
   width="454.7988"
   height="222.56561"
   id="svg45"
   sodipodi:docname="logo (2).svg"
   inkscape:export-filename="logo (2).svg"
   inkscape:export-xdpi="96"
   inkscape:export-ydpi="96"
   inkscape:version="1.3.2 (091e20e, 2023-11-25, custom)"
   xml:space="preserve"
   xmlns:inkscape="http://www.inkscape.org/namespaces/inkscape"
   xmlns:sodipodi="http://sodipodi.sourceforge.net/DTD/sodipodi-0.dtd"
   xmlns="http://www.w3.org/2000/svg"
   xmlns:svg="http://www.w3.org/2000/svg"><defs
     id="defs45" /><sodipodi:namedview
     id="namedview45"
     pagecolor="#ffffff"
     bordercolor="#000000"
     borderopacity="0.25"
     inkscape:showpageshadow="2"
     inkscape:pageopacity="0.0"
     inkscape:pagecheckerboard="0"
     inkscape:deskcolor="#d1d1d1"
     inkscape:zoom="0.7071068"
     inkscape:cx="106.77312"
     inkscape:cy="137.88582"
     inkscape:window-width="1366"
     inkscape:window-height="705"
     inkscape:window-x="-8"
     inkscape:window-y="-8"
     inkscape:window-maximized="1"
     inkscape:current-layer="svg45" /><path
     style="fill:#ededed;fill-opacity:1;stroke-width:54.2258"
     d=""
     id="path52" /><path
     style="fill:#ededed;fill-opacity:1;stroke-width:54.2258"
     d=""
     id="path53" /><path
     style="fill:#ededed;fill-opacity:1;stroke-width:19.1717"
     d=""
     id="path60" /><path
     style="fill:#ededed;fill-opacity:1;stroke-width:38.3434"
     d=""
     id="path81" /><path
     style="fill:#ededed;fill-opacity:1;stroke-width:13.5565"
     d=""
     id="path109" /><path
     style="fill:#ededed;fill-opacity:1;stroke-width:13.5565"
     d=""
     id="path110" /><path
     style="fill:#ededed;fill-opacity:1;stroke-width:13.5565"
     d=""
     id="path111" /><path
     style="fill:#ededed;fill-opacity:1;stroke-width:78.0673"
     d=""
     id="path120" /><path
     style="fill:#ededed;fill-opacity:1;stroke-width:78.0673"
     d=""
     id="path121" /><path
     style="fill:#ededed;fill-opacity:1;stroke-width:78.0673"
     d=""
     id="path122" /><path
     style="fill:#ededed;fill-opacity:1;stroke-width:78.0673"
     d=""
     id="path124" /><path
     style="fill:#ededed;fill-opacity:1;stroke-width:78.0673"
     d=""
     id="path125" /><path
     style="fill:#ededed;fill-opacity:1;stroke-width:78.0673"
     d=""
     id="path126" /><path
     style="fill:#ffffff;stroke-width:218.396"
     d="m 292.09469,214.47516 c -72.90558,-7.27745 -76.45839,-7.39679 -143.56474,-4.8225 -71.402006,2.73909 -112.64337,-4.9197 -133.227247,-24.74115 -6.214359,-5.98417 -7.528772,-8.62849 -7.501811,-15.09218 0.05438,-13.05203 11.167226,-22.25091 36.724279,-30.39939 14.670922,-4.6776 13.581235,-2.97058 20.400621,-31.95772 6.238512,-26.517973 21.874368,-63.392219 28.308173,-66.759491 4.657908,-2.437819 14.380405,2.490124 15.871005,8.044368 0.6412,2.389262 0.23018,6.645633 -0.9134,9.4586 -3.08917,7.598741 0.62427,15.136016 10.36827,21.044823 20.97532,12.719517 55.47806,7.734192 79.48694,-11.485115 4.47498,-3.582257 8.13632,-7.737384 8.13632,-9.233618 0,-1.496234 0.79927,-2.720424 1.77618,-2.720424 1.68322,0 2.54717,-3.555361 6.23554,-25.660943 1.18057,-7.075543 3.17423,-10.742266 8.06099,-14.825708 3.57087,-2.98387 7.94677,-5.4252159 9.72424,-5.4252159 5.52147,0 15.20628,6.4091039 19.51247,12.9127119 4.93457,7.452655 6.54798,7.617166 15.07198,1.536814 3.60879,-2.574231 8.93072,-5.236549 11.82654,-5.916265 5.70597,-1.339332 5.45027,-1.927304 8.47283,19.482397 1.27145,9.006115 0.75066,9.399426 -15.03969,11.358385 -15.3892,1.909193 -30.23025,-2.064972 -34.1441,-9.143166 -4.17879,-7.557388 -2.36815,-11.880435 4.31859,-10.3109 3.71045,0.870936 5.09471,0.426549 5.09471,-1.635564 0,-4.557407 -8.46121,-10.632436 -14.80869,-10.632436 -4.71926,0 -6.41596,1.25513 -8.74561,6.469529 -4.57069,10.23052 0.74766,23.599859 11.92315,29.972581 5.32426,3.036109 10.33125,3.71778 27.35072,3.723623 11.45836,0.0039 23.16189,-0.820804 26.0079,-1.832747 5.82124,-2.069855 8.7911,0.264437 4.53716,3.566183 -1.53047,1.187888 -7.50346,3.470895 -13.27333,5.073351 -6.38589,1.773546 -10.49064,4.001976 -10.49064,5.69526 0,2.496357 17.17686,15.419403 37.01787,27.850486 4.04685,2.535491 15.43182,9.775071 25.29997,16.087941 39.99577,25.58628 44.16722,26.93236 65.49399,21.13417 13.2913,-3.61357 24.15668,-2.72797 36.12727,2.94458 14.77171,6.99992 18.13086,15.16715 9.41821,22.89882 -8.74702,7.76219 -25.61723,11.85168 -62.89955,15.24739 -21.78542,1.98424 -30.54754,1.86058 -59.21451,-0.83573 -18.50507,-1.74053 -33.98895,-3.48569 -34.40864,-3.87818 -0.41967,-0.39248 2.29436,-1.32343 6.03114,-2.06877 36.32142,-7.2446 40.42704,-29.22578 8.91098,-47.70883 -15.87654,-9.31102 -25.96786,-11.57071 -51.20912,-11.46687 -21.7525,0.0894 -23.04476,0.33521 -38.86478,7.3909 -17.61269,7.85522 -49.88648,29.25198 -50.02841,33.16768 -0.064,1.76594 5.66347,2.40785 21.90261,2.45476 25.40029,0.0733 54.79316,5.10234 82.33194,14.08658 6.13752,2.00229 7.15995,2.70442 3.06827,2.10706 -3.3751,-0.49275 -13.43879,-1.81624 -22.36375,-2.94109 -8.92497,-1.12486 -16.87492,-2.41956 -17.66657,-2.87712 -3.45524,-1.99711 -50.0582,-5.05829 -100.08742,-6.57438 -55.184019,-1.67231 -68.061089,-3.40446 -73.107105,-9.83395 -2.270352,-2.89281 -3.494481,-2.96289 -11.651264,-0.6671 -13.206212,3.717 -17.517328,6.29187 -17.517328,10.46247 0,2.03025 1.971453,4.67811 4.381007,5.88413 4.428549,2.21653 64.460518,5.88776 143.91878,8.80125 23.62569,0.8663 36.51243,1.80949 28.6372,2.09599 -26.22133,0.95392 -25.77364,4.89334 0.79809,7.02275 8.56133,0.6861 20.16843,2.02286 25.79358,2.97056 5.62517,0.9477 18.97214,3.00657 29.65996,4.57524 10.68783,1.56868 26.33601,3.91625 34.77374,5.2168 9.24739,1.42536 33.62328,2.30216 61.36544,2.20731 39.15572,-0.13391 48.3135,-0.72748 61.36542,-3.97777 16.52393,-4.11493 24.3576,-3.1829 16.01308,1.9052 -28.09905,17.13344 -87.82222,25.86083 -140.78945,20.57363 z M 251.18441,202.9531 c 0,-2.89166 -27.43807,-9.2976 -45.33396,-10.58408 -21.93973,-1.57716 -28.30455,-0.30034 -28.30455,5.67805 0,2.43496 0.39011,4.79203 0.86691,5.23795 1.67464,1.56616 72.7716,1.24188 72.7716,-0.33192 z M 85.077371,133.13627 c 41.636199,-9.16992 57.829379,-14.23007 90.423019,-28.25595 7.00299,-3.01357 23.36885,-13.179247 24.20525,-15.035125 0.37501,-0.832111 1.75572,-1.517299 3.06827,-1.52264 1.31253,-0.0053 5.36069,-2.803098 8.99591,-6.217232 16.98297,-15.950096 20.09332,-23.110508 13.72967,-31.607292 -3.88098,-5.181921 -7.04331,-5.49289 -7.04331,-0.692605 0,4.071487 -7.19548,14.555022 -15.68367,22.85051 -12.71077,12.422203 -45.80676,25.169925 -69.20517,26.656047 -12.17129,0.773047 -16.05374,0.189049 -25.88876,-3.894152 -6.36358,-2.641966 -14.109702,-7.469142 -17.213612,-10.727055 -3.103896,-3.257915 -6.286722,-5.92348 -7.072954,-5.92348 -1.726434,0 -6.872005,13.033967 -9.817781,24.868924 -7.438024,29.88309 -7.790829,32.52091 -4.349606,32.52091 1.175083,0 8.308813,-1.35939 15.852744,-3.02086 z"
     id="path1" /></svg>
