<?xml version="1.0" encoding="UTF-8"?>
<svg version="1.1" xmlns="http://www.w3.org/2000/svg" width="500" height="500">
<path d="M0 0 C2.91008033 2.35952459 5.01254058 4.91790932 7.3125 7.875 C7.80878906 7.52566406 8.30507813 7.17632812 8.81640625 6.81640625 C13.41834605 3.73389249 16.77489061 2.22110059 22.3125 1.875 C24.32762227 6.09365028 24.72604068 10.08385432 24.9375 14.6875 C24.97617187 15.38037109 25.01484375 16.07324219 25.0546875 16.78710938 C25.14823568 18.48267015 25.23142364 20.17879712 25.3125 21.875 C23.9925 22.535 22.6725 23.195 21.3125 23.875 C23.9525 23.875 26.5925 23.875 29.3125 23.875 C29.625 26.6875 29.625 26.6875 29.3125 29.875 C25.49866249 33.33129024 21.24202211 33.45724389 16.3125 33.875 C20.06097919 37.823018 24.02854269 41.06622247 28.4375 44.25 C29.09838623 44.73114258 29.75927246 45.21228516 30.44018555 45.70800781 C35.10505478 49.07579381 39.87276501 52.22694598 44.76171875 55.26171875 C48.21997345 57.44894569 51.54555008 59.80730253 54.88671875 62.16796875 C57.32642498 63.88479906 59.77953174 65.57774442 62.25 67.25 C62.96027344 67.73210937 63.67054688 68.21421875 64.40234375 68.7109375 C69.07279304 71.55714177 74.29375387 71.48943505 79.51953125 70.42578125 C80.25558594 70.24402344 80.99164063 70.06226563 81.75 69.875 C91.34045423 67.58842515 99.18612806 68.98559036 107.75 73.8125 C111.53745606 76.86094025 111.53745606 76.86094025 112.3125 79.875 C112.3125 83.31473454 112.27996175 85.80302022 109.90234375 88.4375 C108.43306667 89.66016083 106.87686276 90.77661764 105.3125 91.875 C108.24129371 91.24740135 110.67345629 90.28877341 113.3125 88.875 C114.3125 89.875 114.3125 89.875 114.6875 93 C114.23350861 97.69124433 112.64045816 100.55712656 109.3125 103.875 C108.6525 103.875 107.9925 103.875 107.3125 103.875 C106.9825 104.865 106.6525 105.855 106.3125 106.875 C103.88834746 108.35394177 101.5445383 109.63873438 99 110.875 C98.26724854 111.23166748 97.53449707 111.58833496 96.77954102 111.95581055 C90.71273235 114.82502296 84.95482043 116.77770037 78.3125 117.875 C77.52552734 118.00745117 76.73855469 118.13990234 75.92773438 118.27636719 C57.83406 121.2300301 39.91006031 122.02358702 21.69946289 119.734375 C3.32081936 117.45733944 -15.04903926 116.53541268 -33.54418945 117.40844727 C-43.0979265 117.8524178 -52.63736115 118.06121969 -62.20117188 118.10919189 C-63.86381682 118.1195038 -65.52643915 118.13547299 -67.18896484 118.15789795 C-76.19318396 118.27517399 -84.93253515 117.92282327 -93.84375 116.55078125 C-94.98729698 116.3764859 -94.98729698 116.3764859 -96.15394592 116.19866943 C-103.79457088 114.90014514 -110.68202271 112.14543738 -117.6875 108.875 C-118.81091797 108.35099609 -118.81091797 108.35099609 -119.95703125 107.81640625 C-122.31994664 106.53093761 -123.92455402 104.88979541 -125.6875 102.875 C-125.6875 102.215 -125.6875 101.555 -125.6875 100.875 C-126.6775 100.545 -127.6675 100.215 -128.6875 99.875 C-130.16345676 95.44712973 -130.4829891 91.49020829 -129.6875 86.875 C-125.83797386 79.37369735 -118.1768191 75.92436467 -110.6875 72.875 C-109.16758355 72.53751056 -107.64687951 72.20352381 -106.125 71.875 C-102.53368431 70.27604419 -102.53368431 70.27604419 -101.78125 67.390625 C-101.31147178 65.0529191 -100.89269997 62.70473527 -100.5078125 60.3515625 C-97.98874228 45.36755624 -92.73823134 29.80867491 -84.6875 16.875 C-80.8371895 14.30812633 -79.10180237 15.04211276 -74.6875 15.875 C-74.6875 16.535 -74.6875 17.195 -74.6875 17.875 C-73.6975 18.205 -72.7075 18.535 -71.6875 18.875 C-70.34043413 21.56913173 -70.903084 23.22124097 -71.3125 26.1875 C-71.64126437 29.59065551 -71.79788667 31.55073917 -70.6875 34.8125 C-65.69081392 39.96533252 -59.73991056 41.97713888 -52.6875 42.25 C-43.02700619 42.15959431 -35.18230704 37.57757057 -27.6875 31.875 C-27.0275 31.875 -26.3675 31.875 -25.6875 31.875 C-25.2853125 31.0396875 -25.2853125 31.0396875 -24.875 30.1875 C-23.6875 27.875 -23.6875 27.875 -22.171875 25.69140625 C-20.34621296 22.22745275 -20.10109405 19.38964868 -19.75 15.5 C-19.03850733 9.0141082 -18.23061223 3.78541362 -12.9375 -0.5625 C-8.3451669 -1.71058328 -4.33449188 -1.81443846 0 0 Z M-10.6875 7.875 C-11.24587509 12.66107222 -11.20121742 14.90260632 -8.9375 19.1875 C-5.39297042 23.42124366 -3.43721014 24.92560086 2.0625 25.5625 C3.47820961 25.67895353 4.89472818 25.78714662 6.3125 25.875 C3.08458445 23.7230563 2.02849191 23.67413557 -1.6875 23.875 C-1.6875 23.215 -1.6875 22.555 -1.6875 21.875 C-2.3475 21.318125 -3.0075 20.76125 -3.6875 20.1875 C-5.6875 17.875 -5.6875 17.875 -5.9375 14.125 C-5.855 13.0525 -5.7725 11.98 -5.6875 10.875 C-4.0375 10.545 -2.3875 10.215 -0.6875 9.875 C-2.49972534 7.8125006 -2.49972534 7.8125006 -4.6875 5.875 C-7.87240007 5.5976499 -7.87240007 5.5976499 -10.6875 7.875 Z M7.3125 24.875 C7.3125 25.205 7.3125 25.535 7.3125 25.875 C10.6125 25.875 13.9125 25.875 17.3125 25.875 C17.3125 25.545 17.3125 25.215 17.3125 24.875 C14.0125 24.875 10.7125 24.875 7.3125 24.875 Z M-12.6875 25.875 C-15.00342022 29.09614157 -15.00342022 29.09614157 -15.6875 32.875 C-16.3475 32.875 -17.0075 32.875 -17.6875 32.875 C-17.6875 33.865 -17.6875 34.855 -17.6875 35.875 C-18.285625 36.16375 -18.88375 36.4525 -19.5 36.75 C-21.88077792 37.92242026 -21.88077792 37.92242026 -24.6875 39.875 C-24.6875 40.535 -24.6875 41.195 -24.6875 41.875 C-25.491875 42.101875 -26.29625 42.32875 -27.125 42.5625 C-30.00769915 43.62454705 -32.10469548 44.6810066 -34.6875 46.25 C-45.83603484 52.52221409 -59.83021403 55.38515294 -72.41796875 52.1796875 C-77.73982034 49.99965191 -82.25848891 46.49544504 -86.6875 42.875 C-91.81712317 50.56943475 -93.25873232 61.76368682 -93.6875 70.875 C-83.49964775 69.54614971 -73.93421968 67.20849431 -64.1875 63.9375 C-63.18589844 63.60169922 -62.18429688 63.26589844 -61.15234375 62.91992188 C-55.17990304 60.86416166 -49.41202845 58.5406038 -43.6875 55.875 C-42.67042969 55.41738281 -41.65335938 54.95976562 -40.60546875 54.48828125 C-28.99310344 48.95621022 -17.22785134 41.26005604 -10.6875 29.875 C-10.6875 28.555 -10.6875 27.235 -10.6875 25.875 C-11.3475 25.875 -12.0075 25.875 -12.6875 25.875 Z M-41.6875 79.875 C-41.6875 80.205 -41.6875 80.535 -41.6875 80.875 C-40.87821045 80.90940186 -40.0689209 80.94380371 -39.23510742 80.97924805 C-22.2854365 81.75466033 -6.47387416 83.12549101 9.67944336 88.69042969 C10.4710083 88.96145508 11.26257324 89.23248047 12.078125 89.51171875 C12.79387695 89.76268311 13.50962891 90.01364746 14.24707031 90.2722168 C21.13081037 92.28119484 27.84860963 90.50720278 34.3125 87.875 C37.95832531 85.42824226 37.95832531 85.42824226 40.3125 81.875 C40.90388948 78.77020523 40.79688564 76.71882375 39.20703125 73.94921875 C33.17939097 66.2844416 23.39093041 60.67866282 13.74609375 59.0859375 C-8.23868486 57.18035476 -25.29901258 65.55024803 -41.6875 79.875 Z M-111.3125 81.75 C-112.10914063 82.09804688 -112.90578125 82.44609375 -113.7265625 82.8046875 C-115.84810853 83.72052094 -115.84810853 83.72052094 -116.6875 85.875 C-108.02987556 89.23564149 -99.36078682 89.50398263 -90.19921875 89.7890625 C-88.6079306 89.84842786 -87.01668812 89.90902877 -85.42549133 89.97079468 C-81.25687051 90.129663 -77.0878717 90.2734127 -72.9185791 90.41339111 C-67.06413391 90.61273501 -61.2104319 90.83299541 -55.35664368 91.05062866 C-52.24920741 91.16608954 -49.14165926 91.2760656 -46.03385925 91.3812561 C-38.48099182 91.64363196 -30.95647545 92.02067945 -23.42471313 92.66950989 C-19.40430531 92.97133295 -15.40415803 92.98559831 -11.375 92.9375 C-10.62283203 92.93298828 -9.87066406 92.92847656 -9.09570312 92.92382812 C-7.29293185 92.91234551 -5.49020314 92.89443033 -3.6875 92.875 C-7.2369642 90.50869053 -9.46374491 90.35187557 -13.6875 89.875 C-14.38810547 89.79451416 -15.08871094 89.71402832 -15.81054688 89.63110352 C-18.10202533 89.37086855 -20.39467257 89.12304051 -22.6875 88.875 C-24.26045997 88.69699685 -25.83337644 88.51860888 -27.40625 88.33984375 C-28.99990472 88.16320079 -30.5936533 87.98740232 -32.1875 87.8125 C-32.89648438 87.73322266 -33.60546875 87.65394531 -34.3359375 87.57226562 C-45.13230091 86.42923427 -55.95735654 85.85620535 -66.80859375 85.6640625 C-67.57325958 85.64970657 -68.33792542 85.63535065 -69.12576294 85.62055969 C-72.25265756 85.56349927 -75.37935771 85.50825519 -78.5065918 85.47363281 C-95.26210242 85.27377274 -95.26210242 85.27377274 -102.6875 81.875 C-103.0175 81.215 -103.3475 80.555 -103.6875 79.875 C-106.86861969 79.875 -108.44329038 80.46960353 -111.3125 81.75 Z M0.3125 92.875 C0.6425 93.535 0.9725 94.195 1.3125 94.875 C3.77672445 95.46719011 3.77672445 95.46719011 6.8125 95.8125 C10.78355866 96.35977931 14.73540543 96.93311605 18.67578125 97.66796875 C19.78373047 97.87401733 19.78373047 97.87401733 20.9140625 98.08422852 C22.35120401 98.35448602 23.7874701 98.62945616 25.22265625 98.90991211 C29.99213771 99.79338118 34.46089829 99.99452434 39.3125 99.875 C39.6425 98.885 39.9725 97.895 40.3125 96.875 C39.01957031 96.75382812 37.72664063 96.63265625 36.39453125 96.5078125 C27.53047719 95.65906289 18.75578853 94.69940842 9.96875 93.25 C6.69272302 92.78750207 3.61240738 92.72151594 0.3125 92.875 Z M97.3125 93.875 C97.6425 94.535 97.9725 95.195 98.3125 95.875 C98.9725 95.545 99.6325 95.215 100.3125 94.875 C99.3225 94.545 98.3325 94.215 97.3125 93.875 Z M94.3125 94.875 C94.3125 95.535 94.3125 96.195 94.3125 96.875 C94.9725 96.875 95.6325 96.875 96.3125 96.875 C96.3125 96.215 96.3125 95.555 96.3125 94.875 C95.6525 94.875 94.9925 94.875 94.3125 94.875 Z M81.3125 96.875 C82.3025 98.36 82.3025 98.36 83.3125 99.875 C86.7775 99.38 86.7775 99.38 90.3125 98.875 C89.9825 98.215 89.6525 97.555 89.3125 96.875 C86.6725 96.875 84.0325 96.875 81.3125 96.875 Z M73.3125 97.875 C73.3125 98.535 73.3125 99.195 73.3125 99.875 C74.3025 99.545 75.2925 99.215 76.3125 98.875 C75.3225 98.545 74.3325 98.215 73.3125 97.875 Z M58.3125 98.875 C58.3125 99.205 58.3125 99.535 58.3125 99.875 C61.2825 99.875 64.2525 99.875 67.3125 99.875 C67.3125 99.545 67.3125 99.215 67.3125 98.875 C64.3425 98.875 61.3725 98.875 58.3125 98.875 Z M16.3125 101.875 C16.3125 102.205 16.3125 102.535 16.3125 102.875 C18.6225 102.875 20.9325 102.875 23.3125 102.875 C23.3125 102.545 23.3125 102.215 23.3125 101.875 C21.0025 101.875 18.6925 101.875 16.3125 101.875 Z M71.3125 104.875 C75.3125 105.875 75.3125 105.875 75.3125 105.875 Z M-32.6875 106.875 C-32.6875 107.865 -32.6875 108.855 -32.6875 109.875 C-25.7575 109.875 -18.8275 109.875 -11.6875 109.875 C-11.6875 109.215 -11.6875 108.555 -11.6875 107.875 C-18.65529403 106.54780114 -25.61738911 106.78674619 -32.6875 106.875 Z " fill="#EDEDED" transform="translate(260.6875,182.125)"/>
<path d="M0 0 C2.91008033 2.35952459 5.01254058 4.91790932 7.3125 7.875 C8.05693359 7.35099609 8.05693359 7.35099609 8.81640625 6.81640625 C13.41834605 3.73389249 16.77489061 2.22110059 22.3125 1.875 C24.32762227 6.09365028 24.72604068 10.08385432 24.9375 14.6875 C24.97617187 15.38037109 25.01484375 16.07324219 25.0546875 16.78710938 C25.14823568 18.48267015 25.23142364 20.17879712 25.3125 21.875 C22.6725 22.865 20.0325 23.855 17.3125 24.875 C17.3125 25.535 17.3125 26.195 17.3125 26.875 C12.38126024 29.34061988 4.97750928 28.38963923 -0.125 26.8125 C-0.970625 26.503125 -1.81625 26.19375 -2.6875 25.875 C-5.46497682 26.16139786 -5.46497682 26.16139786 -7.6875 26.875 C-7.666875 27.98875 -7.64625 29.1025 -7.625 30.25 C-7.6875 33.875 -7.6875 33.875 -8.6875 35.875 C-9.3475 35.875 -10.0075 35.875 -10.6875 35.875 C-11.1825 36.865 -11.1825 36.865 -11.6875 37.875 C-13.33306566 38.90935556 -15.0045608 39.90263513 -16.6875 40.875 C-21.00224018 43.14246421 -21.00224018 43.14246421 -23.375 47.0625 C-23.478125 47.660625 -23.58125 48.25875 -23.6875 48.875 C-24.6775 49.205 -25.6675 49.535 -26.6875 49.875 C-27.6775 49.215 -28.6675 48.555 -29.6875 47.875 C-27.90076795 46.3691255 -26.10796492 44.8704515 -24.3125 43.375 C-23.31476563 42.5396875 -22.31703125 41.704375 -21.2890625 40.84375 C-18.6875 38.875 -18.6875 38.875 -16.6875 38.875 C-16.419375 38.318125 -16.15125 37.76125 -15.875 37.1875 C-14.6875 34.875 -14.6875 34.875 -13.125 32.375 C-11.83576053 30.1328444 -11.15402072 28.39421187 -10.6875 25.875 C-13.70077566 27.38163783 -14.29806618 29.90666411 -15.6875 32.875 C-16.3475 32.875 -17.0075 32.875 -17.6875 32.875 C-17.6875 33.865 -17.6875 34.855 -17.6875 35.875 C-22.03035714 39.875 -22.03035714 39.875 -24.6875 39.875 C-24.6875 40.535 -24.6875 41.195 -24.6875 41.875 C-27.01264641 43.2040876 -29.34595151 44.51287394 -31.6875 45.8125 C-32.66009766 46.37227539 -32.66009766 46.37227539 -33.65234375 46.94335938 C-38.39932535 49.55184926 -42.28086261 50.49484581 -47.6875 50.875 C-46.6975 50.38 -46.6975 50.38 -45.6875 49.875 C-46.47443049 47.24755115 -46.47443049 47.24755115 -48.6875 44.875 C-51.29003115 44.33981946 -53.7558783 44.18733599 -56.41015625 44.11328125 C-58.6875 43.875 -58.6875 43.875 -60.6875 41.875 C-59.38039062 41.96201172 -59.38039062 41.96201172 -58.046875 42.05078125 C-45.80214999 42.51459659 -37.31895706 39.20328255 -27.6875 31.875 C-27.0275 31.875 -26.3675 31.875 -25.6875 31.875 C-25.419375 31.318125 -25.15125 30.76125 -24.875 30.1875 C-23.6875 27.875 -23.6875 27.875 -22.171875 25.69140625 C-20.34621296 22.22745275 -20.10109405 19.38964868 -19.75 15.5 C-19.03850733 9.0141082 -18.23061223 3.78541362 -12.9375 -0.5625 C-8.3451669 -1.71058328 -4.33449188 -1.81443846 0 0 Z M-10.6875 7.875 C-11.24587509 12.66107222 -11.20121742 14.90260632 -8.9375 19.1875 C-5.39297042 23.42124366 -3.43721014 24.92560086 2.0625 25.5625 C3.47820961 25.67895353 4.89472818 25.78714662 6.3125 25.875 C3.08458445 23.7230563 2.02849191 23.67413557 -1.6875 23.875 C-1.6875 23.215 -1.6875 22.555 -1.6875 21.875 C-2.3475 21.318125 -3.0075 20.76125 -3.6875 20.1875 C-5.6875 17.875 -5.6875 17.875 -5.9375 14.125 C-5.855 13.0525 -5.7725 11.98 -5.6875 10.875 C-4.0375 10.545 -2.3875 10.215 -0.6875 9.875 C-2.49972534 7.8125006 -2.49972534 7.8125006 -4.6875 5.875 C-7.87240007 5.5976499 -7.87240007 5.5976499 -10.6875 7.875 Z " fill="#D9D9D9" transform="translate(260.6875,182.125)"/>
<path d="M0 0 C0 0.66 0 1.32 0 2 C0.99 2.33 1.98 2.66 3 3 C4.6336378 6.26727559 3.47220371 9.64032715 2.9609375 13.17578125 C3.00977341 16.70661756 3.86380746 18.2150722 6 21 C12.65839835 26.71080845 19.42163902 27.9705211 28 28 C28 28.99 28 29.98 28 31 C28.33 31.99 28.66 32.98 29 34 C28.34 34 27.68 34 27 34 C27 34.66 27 35.32 27 36 C18.9399532 39.13376625 8.05960473 39.73587092 -0.0625 36.375 C-4.17844955 34.17455005 -7.65202093 31.2295618 -11 28 C-13.6419897 30.6419897 -14.11386587 33.4825637 -15 37 C-15.26055176 38.0046228 -15.26055176 38.0046228 -15.52636719 39.02954102 C-16.87725912 44.31588783 -18.0394012 49.62823039 -19 55 C-16.03 54.505 -16.03 54.505 -13 54 C-16 56 -16 56 -21 56 C-20.34 51.71 -19.68 47.42 -19 43 C-20.98 43.66 -22.96 44.32 -25 45 C-25 46.65 -25 48.3 -25 50 C-25.33 50 -25.66 50 -26 50 C-26.55536937 43.08763484 -24.55327635 37.11484635 -22.5 30.5625 C-21.96403198 28.83773437 -21.96403198 28.83773437 -21.41723633 27.078125 C-12.00462292 -2.26502319 -12.00462292 -2.26502319 0 0 Z " fill="#E1E1E1" transform="translate(186,198)"/>
<path d="M0 0 C2.71121495 0.85617314 4.55388461 1.45249475 6.375 3.6875 C7.32452747 7.20075164 6.98250108 9.49983991 6 13 C4.14853286 15.05148714 2.28601489 16.39492572 0 18 C2.92879371 17.37240135 5.36095629 16.41377341 8 15 C9 16 9 16 9.375 19.125 C8.92100861 23.81624433 7.32795816 26.68212656 4 30 C3.34 30 2.68 30 2 30 C1.505 31.485 1.505 31.485 1 33 C-1.0625 33.6875 -1.0625 33.6875 -3 34 C-2.01 31.525 -2.01 31.525 -1 29 C-5.73247264 29.45798122 -10.29669776 30.02549031 -14.9375 31.0625 C-19.99423635 32.13417882 -24.85023748 32.19722495 -30 32 C-30 32.33 -30 32.66 -30 33 C-60.98928147 33.37998553 -60.98928147 33.37998553 -74.375 32.125 C-75.21498535 32.04652832 -76.0549707 31.96805664 -76.92041016 31.88720703 C-82.69103447 31.27946592 -88.32954262 30.22033873 -94 29 C-94 28.01 -94 27.02 -94 26 C-93.01 26 -92.02 26 -91 26 C-91 26.66 -91 27.32 -91 28 C-90.34 27.67 -89.68 27.34 -89 27 C-87.29636178 26.77377919 -85.58671299 26.59111527 -83.875 26.4375 C-82.96492188 26.35371094 -82.05484375 26.26992188 -81.1171875 26.18359375 C-80.41851562 26.12300781 -79.71984375 26.06242187 -79 26 C-79 25.67 -79 25.34 -79 25 C-74.71 25 -70.42 25 -66 25 C-65.67 24.34 -65.34 23.68 -65 23 C-49.16 23.495 -49.16 23.495 -33 24 C-33 24.66 -33 25.32 -33 26 C-32.01 25.67 -31.02 25.34 -30 25 C-29.67 24.34 -29.34 23.68 -29 23 C-25.87709365 23.48578543 -23.00419641 23.9986012 -20 25 C-17.85744207 24.61067144 -17.85744207 24.61067144 -16 24 C-18.31 23.67 -20.62 23.34 -23 23 C-19.75100862 21.10153948 -17.04684356 20.64423171 -13.3125 20.375 C-12.33925781 20.30023438 -11.36601562 20.22546875 -10.36328125 20.1484375 C-8 20 -8 20 -7 20 C-5.66073801 19.00795408 -4.32901064 18.00573778 -3 17 C-1 15.66666667 1 14.33333333 3 13 C4.36222307 11.84983746 4.36222307 11.84983746 4.3125 8.75 C3.95628972 4.47547661 2.93261437 3.02425856 0 0 Z M-11 21 C-11 21.66 -11 22.32 -11 23 C-10.34 23 -9.68 23 -9 23 C-9 22.34 -9 21.68 -9 21 C-9.66 21 -10.32 21 -11 21 Z M-47 25 C-47 25.33 -47 25.66 -47 26 C-44.03 26 -41.06 26 -38 26 C-38 25.67 -38 25.34 -38 25 C-40.97 25 -43.94 25 -47 25 Z M-89 28 C-89 28.33 -89 28.66 -89 29 C-86.69 29 -84.38 29 -82 29 C-82 28.67 -82 28.34 -82 28 C-84.31 28 -86.62 28 -89 28 Z " fill="#BABABA" transform="translate(366,256)"/>
<path d="M0 0 C0.70135071 0.04279083 1.40270142 0.08558167 2.12530518 0.12966919 C14.61143169 0.92768698 26.10170699 3.10082455 37.92504883 7.19262695 C38.7167749 7.46421631 39.50850098 7.73580566 40.32421875 8.015625 C41.04053467 8.26731445 41.75685059 8.51900391 42.49487305 8.77832031 C49.19071555 10.71061918 55.96165914 8.88994708 62.5625 7.375 C62.5625 8.035 62.5625 8.695 62.5625 9.375 C57.689239 10.9662689 53.75459404 11.58692221 48.5625 11.375 C48.5625 12.035 48.5625 12.695 48.5625 13.375 C50.8725 13.705 53.1825 14.035 55.5625 14.375 C55.5625 14.705 55.5625 15.035 55.5625 15.375 C49.80199756 15.64293035 44.42089164 14.79349748 38.74609375 13.8125 C35.639015 13.38551495 32.69402806 13.29965496 29.5625 13.375 C30.37332031 13.49617188 31.18414062 13.61734375 32.01953125 13.7421875 C39.22537159 14.83271049 46.40057475 16.02585977 53.5625 17.375 C53.5625 17.705 53.5625 18.035 53.5625 18.375 C49.28420263 18.44630496 45.69523734 18.44151286 41.5625 17.375 C39.22949067 17.33611651 36.89540199 17.3301365 34.5625 17.375 C35.0575 18.365 35.0575 18.365 35.5625 19.375 C36.5525 19.375 37.5425 19.375 38.5625 19.375 C38.5625 20.035 38.5625 20.695 38.5625 21.375 C29.95485455 21.83612386 21.94770694 20.10348437 13.5625 18.375 C13.5625 17.715 13.5625 17.055 13.5625 16.375 C17.1925 16.045 20.8225 15.715 24.5625 15.375 C20.2725 14.715 15.9825 14.055 11.5625 13.375 C11.5625 13.045 11.5625 12.715 11.5625 12.375 C14.8625 12.045 18.1625 11.715 21.5625 11.375 C4.59571948 9.17516915 -12.34676122 7.27079045 -29.4375 6.375 C-29.4375 6.045 -29.4375 5.715 -29.4375 5.375 C-24.8175 5.045 -20.1975 4.715 -15.4375 4.375 C-15.7675 3.055 -16.0975 1.735 -16.4375 0.375 C-11.76116366 -1.96316817 -5.1467196 -0.31992081 0 0 Z " fill="#C5C5C5" transform="translate(232.4375,262.625)"/>
<path d="M0 0 C0.33910994 2.04071515 0.67102704 4.08262621 1 6.125 C1.185625 7.26195312 1.37125 8.39890625 1.5625 9.5703125 C1.96956049 12.76137602 2.07809902 15.78817791 2 19 C-0.64 19.99 -3.28 20.98 -6 22 C-6 22.66 -6 23.32 -6 24 C-11.03799182 26.51899591 -18.49295583 25.40187844 -23.75 24 C-24.4925 23.67 -25.235 23.34 -26 23 C-24.68 22.67 -23.36 22.34 -22 22 C-22.99 21.67 -23.98 21.34 -25 21 C-25 20.34 -25 19.68 -25 19 C-25.639375 18.71125 -26.27875 18.4225 -26.9375 18.125 C-29 17 -29 17 -30 15 C-30.125 11.4375 -30.125 11.4375 -30 8 C-29 7 -29 7 -26.4375 6.9375 C-25.2309375 6.9684375 -25.2309375 6.9684375 -24 7 C-24 6.01 -24 5.02 -24 4 C-24.99 3.67 -25.98 3.34 -27 3 C-25 0 -25 0 -22.6875 -0.5 C-18.93963228 0.19727772 -17.45637145 2.19271834 -15 5 C-14.55269531 4.65066406 -14.10539062 4.30132812 -13.64453125 3.94140625 C-9.08516541 0.50973004 -5.79095186 -1.93031729 0 0 Z " fill="#E5E5E5" transform="translate(284,185)"/>
<path d="M0 0 C15.84 0.495 15.84 0.495 32 1 C32 1.66 32 2.32 32 3 C32.99 2.67 33.98 2.34 35 2 C35.33 1.34 35.66 0.68 36 0 C39.12290635 0.48578543 41.99580359 0.9986012 45 2 C46.66621616 2.03874921 48.33394172 2.0450286 50 2 C45.77665907 6.22334093 37.3440144 5.0447051 31.62036133 5.11352539 C29.77424373 5.11337048 27.92812027 5.10792872 26.08203125 5.09765625 C25.09877365 5.0962413 24.11551605 5.09482635 23.10246277 5.09336853 C20.00577567 5.08783463 16.90916472 5.07529514 13.8125 5.0625 C11.69466251 5.05747644 9.57682388 5.05291504 7.45898438 5.04882812 C2.30596088 5.03788698 -2.84700671 5.02066921 -8 5 C-5.03 5.495 -5.03 5.495 -2 6 C-2 6.66 -2 7.32 -2 8 C0.64 7.67 3.28 7.34 6 7 C-2.93639861 12.95759907 -19.04596683 7.89600632 -29 6 C-29 5.01 -29 4.02 -29 3 C-28.01 3 -27.02 3 -26 3 C-26 3.66 -26 4.32 -26 5 C-25.34 4.67 -24.68 4.34 -24 4 C-22.29636178 3.77377919 -20.58671299 3.59111527 -18.875 3.4375 C-17.96492188 3.35371094 -17.05484375 3.26992188 -16.1171875 3.18359375 C-15.06917969 3.09271484 -15.06917969 3.09271484 -14 3 C-14 2.67 -14 2.34 -14 2 C-9.71 2 -5.42 2 -1 2 C-0.67 1.34 -0.34 0.68 0 0 Z M18 2 C18 2.33 18 2.66 18 3 C20.97 3 23.94 3 27 3 C27 2.67 27 2.34 27 2 C24.03 2 21.06 2 18 2 Z M-24 5 C-24 5.33 -24 5.66 -24 6 C-21.69 6 -19.38 6 -17 6 C-17 5.67 -17 5.34 -17 5 C-19.31 5 -21.62 5 -24 5 Z " fill="#595959" transform="translate(301,279)"/>
<path d="M0 0 C6.0018137 -0.21824777 11.19233704 0.4943096 17 2 C17 2.33 17 2.66 17 3 C15.35 3.33 13.7 3.66 12 4 C12.81082031 4.12117188 13.62164062 4.24234375 14.45703125 4.3671875 C21.66287159 5.45771049 28.83807475 6.65085977 36 8 C36 8.33 36 8.66 36 9 C31.72170263 9.07130496 28.13273734 9.06651286 24 8 C21.66699067 7.96111651 19.33290199 7.9551365 17 8 C17.33 8.66 17.66 9.32 18 10 C18.99 10 19.98 10 21 10 C21 10.66 21 11.32 21 12 C12.39235455 12.46112386 4.38520694 10.72848437 -4 9 C-4 8.34 -4 7.68 -4 7 C1.445 6.505 1.445 6.505 7 6 C2.71 5.34 -1.58 4.68 -6 4 C-6 3.67 -6 3.34 -6 3 C-2.7 2.67 0.6 2.34 4 2 C2.68 1.34 1.36 0.68 0 0 Z " fill="#646464" transform="translate(250,272)"/>
<path d="M0 0 C4.22915147 -0.02953635 8.45827572 -0.04697584 12.6875 -0.0625 C13.86634766 -0.07087891 15.04519531 -0.07925781 16.25976562 -0.08789062 C28.33844276 -0.12098289 39.95278258 0.76208874 51.8125 3.0625 C52.80314453 3.24876953 53.79378906 3.43503906 54.81445312 3.62695312 C57.21088322 4.07845445 59.60593646 4.53614415 62 5 C62 5.33 62 5.66 62 6 C56.72 6 51.44 6 46 6 C46 6.66 46 7.32 46 8 C40.72 7.34 35.44 6.68 30 6 C30 5.67 30 5.34 30 5 C31.65 4.67 33.3 4.34 35 4 C35 3.67 35 3.34 35 3 C34.18845459 2.97494385 33.37690918 2.9498877 32.54077148 2.92407227 C28.83954284 2.80754183 25.13853319 2.685075 21.4375 2.5625 C20.16068359 2.52318359 18.88386719 2.48386719 17.56835938 2.44335938 C16.32763672 2.40146484 15.08691406 2.35957031 13.80859375 2.31640625 C12.67220459 2.27974854 11.53581543 2.24309082 10.36499023 2.20532227 C6.86818455 1.99195699 3.46008025 1.54045723 0 1 C0 0.67 0 0.34 0 0 Z " fill="#B1B1B1" transform="translate(200,273)"/>
<path d="M0 0 C0.144375 0.639375 0.28875 1.27875 0.4375 1.9375 C0.81007181 3.97545146 0.81007181 3.97545146 2 5 C2.99 6.485 2.99 6.485 4 8 C4.66 7.34 5.32 6.68 6 6 C5.37392048 11.79947349 4.32599062 17.33809831 2.9375 23 C2.75123047 23.77472656 2.56496094 24.54945313 2.37304688 25.34765625 C1.91923822 27.23270759 1.46017508 29.1164927 1 31 C2.98 30.67 4.96 30.34 7 30 C4 32 4 32 -1 32 C-0.34 27.71 0.32 23.42 1 19 C-0.98 19.66 -2.96 20.32 -5 21 C-5 22.65 -5 24.3 -5 26 C-5.33 26 -5.66 26 -6 26 C-6.4026486 19.81766632 -4.96855477 14.89279172 -3 9.0625 C-2.71382812 8.18787109 -2.42765625 7.31324219 -2.1328125 6.41210938 C-1.43098661 4.2715404 -0.71991611 2.1345385 0 0 Z " fill="#B2B2B2" transform="translate(166,222)"/>
<path d="M0 0 C0.66 0.495 1.32 0.99 2 1.5 C1.360625 1.78875 0.72125 2.0775 0.0625 2.375 C-2.15206079 3.32823451 -2.15206079 3.32823451 -3 5.5 C-2.34 5.83 -1.68 6.16 -1 6.5 C-1.33 7.16 -1.66 7.82 -2 8.5 C-2.99 7.84 -3.98 7.18 -5 6.5 C-8.14221967 6.81506627 -8.14221967 6.81506627 -11 7.5 C-10.33735914 13.56264222 -10.33735914 13.56264222 -9 19.5 C-11.1793144 17.74135754 -11.93686419 16.80604 -12.51171875 14.01953125 C-12.59873047 12.67955078 -12.59873047 12.67955078 -12.6875 11.3125 C-12.78611328 9.96091797 -12.78611328 9.96091797 -12.88671875 8.58203125 C-12.92410156 7.89496094 -12.96148437 7.20789063 -13 6.5 C-14.32 6.17 -15.64 5.84 -17 5.5 C-15.56521739 0.95652174 -15.56521739 0.95652174 -13.375 -0.8125 C-8.48639303 -2.22762307 -4.49148232 -2.24574116 0 0 Z " fill="#B9B9B9" transform="translate(261,182.5)"/>
<path d="M0 0 C-0.99 0.66 -1.98 1.32 -3 2 C-3 3.32 -3 4.64 -3 6 C-0.36 5.34 2.28 4.68 5 4 C2.64350301 6.68872443 0.36421235 7.9193851 -2.9375 9.25 C-3.79214844 9.60578125 -4.64679688 9.9615625 -5.52734375 10.328125 C-8.17145366 11.04658772 -9.45868571 10.91982605 -12 10 C-11.34 10 -10.68 10 -10 10 C-10.78693049 7.37255115 -10.78693049 7.37255115 -13 5 C-15.60253115 4.46481946 -18.0683783 4.31233599 -20.72265625 4.23828125 C-23 4 -23 4 -25 2 C-24.0821875 2.03480469 -23.164375 2.06960937 -22.21875 2.10546875 C-15.81885163 2.24664298 -5.23218476 -1.74406159 0 0 Z " fill="#B7B7B7" transform="translate(225,222)"/>
<path d="M0 0 C6.43448477 0.0298584 12.09110109 0.3358724 18.2421875 2.265625 C18.2421875 2.595625 18.2421875 2.925625 18.2421875 3.265625 C11.3121875 3.265625 4.3821875 3.265625 -2.7578125 3.265625 C-2.7578125 3.595625 -2.7578125 3.925625 -2.7578125 4.265625 C4.5021875 4.595625 11.7621875 4.925625 19.2421875 5.265625 C19.2421875 4.605625 19.2421875 3.945625 19.2421875 3.265625 C21.03542003 3.54750436 22.82675876 3.8414531 24.6171875 4.140625 C25.61492187 4.30304688 26.61265625 4.46546875 27.640625 4.6328125 C30.2421875 5.265625 30.2421875 5.265625 32.2421875 7.265625 C19.7021875 6.935625 7.1621875 6.605625 -5.7578125 6.265625 C-4.29482266 0.41366564 -4.29482266 0.41366564 0 0 Z " fill="#6D6D6D" transform="translate(230.7578125,286.734375)"/>
<path d="M0 0 C0 0.66 0 1.32 0 2 C-4.873261 3.5912689 -8.80790596 4.21192221 -14 4 C-14 4.66 -14 5.32 -14 6 C-11.69 6.33 -9.38 6.66 -7 7 C-7 7.33 -7 7.66 -7 8 C-13.96136539 8.32378444 -22.71480525 8.14259737 -29 5 C-29.33 4.01 -29.66 3.02 -30 2 C-28.11940967 0.11940967 -25.50109962 0.87638782 -23.0078125 0.8671875 C-21 1 -21 1 -18 2 C-11.6348591 2.32365123 -6.12306762 0 0 0 Z " fill="#8D8D8D" transform="translate(295,270)"/>
<path d="M0 0 C2.475 1.485 2.475 1.485 5 3 C4.48041715 7.37934119 3.94324258 11.68803391 3 16 C2.34 16 1.68 16 1 16 C0.67 16.66 0.34 17.32 0 18 C-1.64556566 19.03435556 -3.3170608 20.02763513 -5 21 C-9.31474018 23.26746421 -9.31474018 23.26746421 -11.6875 27.1875 C-11.790625 27.785625 -11.89375 28.38375 -12 29 C-12.99 29.33 -13.98 29.66 -15 30 C-15.99 29.34 -16.98 28.68 -18 28 C-16.21326795 26.4941255 -14.42046492 24.9954515 -12.625 23.5 C-11.62726563 22.6646875 -10.62953125 21.829375 -9.6015625 20.96875 C-7 19 -7 19 -5 19 C-4.7525 18.4225 -4.505 17.845 -4.25 17.25 C-3 15 -3 15 -0.875 13.125 C1.27578139 11.10049447 1.27578139 11.10049447 1.3125 8.0625 C1.03197999 5.31340392 0.63262132 2.6886406 0 0 Z " fill="#E9E9E9" transform="translate(249,202)"/>
<path d="M0 0 C1.65 0 3.3 0 5 0 C5.33 0.99 5.66 1.98 6 3 C8.97 3.495 8.97 3.495 12 4 C12 4.66 12 5.32 12 6 C14.64 5.67 17.28 5.34 20 5 C11.06360139 10.95759907 -5.04596683 5.89600632 -15 4 C-15 3.01 -15 2.02 -15 1 C-14.01 1 -13.02 1 -12 1 C-12 1.66 -12 2.32 -12 3 C-11.34 2.67 -10.68 2.34 -10 2 C-8.29636178 1.77377919 -6.58671299 1.59111527 -4.875 1.4375 C-3.96492188 1.35371094 -3.05484375 1.26992188 -2.1171875 1.18359375 C-1.06917969 1.09271484 -1.06917969 1.09271484 0 1 C0 0.67 0 0.34 0 0 Z M-10 3 C-10 3.33 -10 3.66 -10 4 C-7.69 4 -5.38 4 -3 4 C-3 3.67 -3 3.34 -3 3 C-5.31 3 -7.62 3 -10 3 Z " fill="#707070" transform="translate(287,281)"/>
<path d="M0 0 C0.99 0.33 1.98 0.66 3 1 C3.57341412 6.6194584 2.5593358 9.36404155 -0.7109375 13.71484375 C-2 15 -2 15 -4 15 C-4.33 15.99 -4.66 16.98 -5 18 C-7.0625 18.6875 -7.0625 18.6875 -9 19 C-8.34 17.35 -7.68 15.7 -7 14 C-7.99 13.67 -8.98 13.34 -10 13 C-9.13375 12.87625 -9.13375 12.87625 -8.25 12.75 C-5.3840696 11.79468987 -4.0009236 10.21530827 -2 8 C-2.66 6.68 -3.32 5.36 -4 4 C-2.68 2.68 -1.36 1.36 0 0 Z " fill="#C3C3C3" transform="translate(372,271)"/>
<path d="M0 0 C1.18851563 0.00902344 2.37703125 0.01804687 3.6015625 0.02734375 C4.51679688 0.03894531 5.43203125 0.05054688 6.375 0.0625 C6.705 1.3825 7.035 2.7025 7.375 4.0625 C-0.545 4.0625 -8.465 4.0625 -16.625 4.0625 C-16.295 3.0725 -15.965 2.0825 -15.625 1.0625 C-14.51125 1.083125 -13.3975 1.10375 -12.25 1.125 C-7.97135176 1.0512302 -4.43301987 -0.04346098 0 0 Z " fill="#F7F7F7" transform="translate(248.625,292.9375)"/>
<path d="M0 0 C-8.84879402 6.57987248 -20.01771172 9.19769872 -31 8 C-32.32 7.34 -33.64 6.68 -35 6 C-32.03 6 -29.06 6 -26 6 C-26 5.67 -26 5.34 -26 5 C-24.989375 5.061875 -23.97875 5.12375 -22.9375 5.1875 C-19.32913951 5.01567331 -17.18404379 4.3983583 -13.96875 2.87109375 C-11.58551663 1.81660756 -9.17513581 1.0255991 -6.6875 0.25 C-5.84574219 -0.01296875 -5.00398438 -0.2759375 -4.13671875 -0.546875 C-2 -1 -2 -1 0 0 Z " fill="#535353" transform="translate(368,280)"/>
<path d="M0 0 C-3 2 -3 2 -5.0625 3 C-7.16194362 3.95925017 -7.16194362 3.95925017 -9 6 C-15.16311834 6.6273833 -21.27268612 6.54547283 -27 4 C-25.68 3.67 -24.36 3.34 -23 3 C-23.66 2.67 -24.32 2.34 -25 2 C-25 1.67 -25 1.34 -25 1 C-21.77093849 0.83125405 -18.54173589 0.66537263 -15.3125 0.5 C-14.40048828 0.45230469 -13.48847656 0.40460938 -12.54882812 0.35546875 C-11.66259766 0.31035156 -10.77636719 0.26523438 -9.86328125 0.21875 C-9.05157471 0.17685547 -8.23986816 0.13496094 -7.40356445 0.09179688 C-4.93328996 -0.00254779 -2.47182511 -0.01538879 0 0 Z " fill="#717171" transform="translate(285,204)"/>
<path d="M0 0 C2.34076957 0.56090139 4.41679065 0.59393966 6.8203125 0.55859375 C8.01914062 0.54505859 8.01914062 0.54505859 9.2421875 0.53125 C10.14710938 0.51384766 10.14710938 0.51384766 11.0703125 0.49609375 C11.4003125 1.48609375 11.7303125 2.47609375 12.0703125 3.49609375 C10.15527576 3.71891249 8.23814744 3.92380451 6.3203125 4.12109375 C5.25296875 4.23710937 4.185625 4.353125 3.0859375 4.47265625 C0.03238851 4.4963885 -1.39131171 4.1103036 -3.9296875 2.49609375 C-3.9296875 3.48609375 -3.9296875 4.47609375 -3.9296875 5.49609375 C-4.9196875 5.16609375 -5.9096875 4.83609375 -6.9296875 4.49609375 C-6.5996875 4.16609375 -6.2696875 3.83609375 -5.9296875 3.49609375 C-6.5690625 3.37234375 -7.2084375 3.24859375 -7.8671875 3.12109375 C-8.5478125 2.91484375 -9.2284375 2.70859375 -9.9296875 2.49609375 C-10.2596875 1.83609375 -10.5896875 1.17609375 -10.9296875 0.49609375 C-7.56596647 -1.18576677 -3.6063917 -0.94175006 0 0 Z " fill="#D1D1D1" transform="translate(275.9296875,279.50390625)"/>
<path d="M0 0 C9.44988617 -0.0720525 18.8696589 0.14655021 28.3125 0.5 C29.65038292 0.54839047 30.98827355 0.59656855 32.32617188 0.64453125 C35.55086275 0.76094608 38.77546083 0.87946846 42 1 C42 1.33 42 1.66 42 2 C41.30438965 2.02505615 40.6087793 2.0501123 39.89208984 2.07592773 C36.71956545 2.19245974 33.54729645 2.31492568 30.375 2.4375 C29.28058594 2.47681641 28.18617188 2.51613281 27.05859375 2.55664062 C25.46337891 2.61948242 25.46337891 2.61948242 23.8359375 2.68359375 C22.86188965 2.72025146 21.8878418 2.75690918 20.88427734 2.79467773 C17.94065574 2.95479887 17.94065574 2.95479887 14.8359375 3.5546875 C11.37678957 4.09785949 8.98371054 3.49547515 5.625 2.5625 C4.56539063 2.27503906 3.50578125 1.98757813 2.4140625 1.69140625 C1.61742187 1.46324219 0.82078125 1.23507812 0 1 C0 0.67 0 0.34 0 0 Z " fill="#E2E2E2" transform="translate(289,283)"/>
<path d="M0 0 C1.85546875 0.74869792 3.7109375 1.49739583 5.56640625 2.24609375 C11.06262531 3.94877478 16.74839074 4.1503682 22.46484375 4.31640625 C23.48210289 4.3475779 23.48210289 4.3475779 24.51991272 4.37937927 C26.65901831 4.44409309 28.79823296 4.5033909 30.9375 4.5625 C32.39909924 4.60575984 33.86068797 4.64937634 35.32226562 4.69335938 C38.8813984 4.79969251 42.44064997 4.9011733 46 5 C46 5.33 46 5.66 46 6 C41.03787447 6.0747135 36.07608359 6.1288656 31.11352539 6.16479492 C29.42889698 6.17978874 27.74430697 6.20019073 26.05981445 6.22631836 C8.10137139 6.49769039 8.10137139 6.49769039 1 3 C0.67 2.01 0.34 1.02 0 0 Z " fill="#8C8C8C" transform="translate(157,262)"/>
<path d="M0 0 C2.71121495 0.85617314 4.55388461 1.45249475 6.375 3.6875 C7.32452747 7.20075164 6.98250108 9.49983991 6 13 C4.14853286 15.05148714 2.28601489 16.39492572 0 18 C0.66 18.33 1.32 18.66 2 19 C2 19.66 2 20.32 2 21 C-0.8125 21.6875 -0.8125 21.6875 -4 22 C-5.69921875 20.51953125 -5.69921875 20.51953125 -7 19 C-6.37351562 18.66226562 -5.74703125 18.32453125 -5.1015625 17.9765625 C-4.28429687 17.53054688 -3.46703125 17.08453125 -2.625 16.625 C-1.81289063 16.18414062 -1.00078125 15.74328125 -0.1640625 15.2890625 C2.10814302 14.0556107 2.10814302 14.0556107 4 12 C4.48602588 7.70677141 4.46241608 5.67917361 2 2.0625 C1.34 1.381875 0.68 0.70125 0 0 Z " fill="#6E6E6E" transform="translate(366,256)"/>
<path d="M0 0 C3.12290635 0.48578543 5.99580359 0.9986012 9 2 C10.66621616 2.03874921 12.33394172 2.0450286 14 2 C9.42037408 6.57962592 -0.68488286 5.11937291 -6.90625 5.23046875 C-9 5 -9 5 -12 3 C-10.0625 2.4375 -10.0625 2.4375 -8 2 C-7.67 2.33 -7.34 2.66 -7 3 C-3.97980236 2.74664647 -3.97980236 2.74664647 -1 2 C-0.67 1.34 -0.34 0.68 0 0 Z " fill="#747474" transform="translate(337,279)"/>
<path d="M0 0 C2.33294775 -0.04241723 4.66702567 -0.04092937 7 0 C7.33 0.33 7.66 0.66 8 1 C10.28804167 1.21066368 12.58103822 1.36864841 14.875 1.5 C21.67245658 1.89081886 21.67245658 1.89081886 25 3 C25 3.66 25 4.32 25 5 C16.39235455 5.46112386 8.38520694 3.72848437 0 2 C0 1.34 0 0.68 0 0 Z " fill="#4F4F4F" transform="translate(246,279)"/>
<path d="M0 0 C-0.33 0.66 -0.66 1.32 -1 2 C-1.66 2 -2.32 2 -3 2 C-3.33 3.65 -3.66 5.3 -4 7 C-5.98 7.33 -7.96 7.66 -10 8 C-10.33 6.68 -10.66 5.36 -11 4 C-9.73760288 3.13341385 -8.46472499 2.28207941 -7.1875 1.4375 C-6.47980469 0.96183594 -5.77210938 0.48617187 -5.04296875 -0.00390625 C-3 -1 -3 -1 0 0 Z " fill="#F6F6F6" transform="translate(232,220)"/>
<path d="M0 0 C0 0.33 0 0.66 0 1 C-4.27829737 1.07130496 -7.86726266 1.06651286 -12 0 C-15.41953864 -0.12664958 -18.56168528 -0.07460676 -21.9375 0.5 C-25.68954192 1.11257827 -29.20055694 1.06550764 -33 1 C-33 0.34 -33 -0.32 -33 -1 C-21.28944148 -3.40083722 -11.61777246 -2.47526424 0 0 Z " fill="#929292" transform="translate(286,280)"/>
<path d="M0 0 C1.79323253 0.28187936 3.58457126 0.5758281 5.375 0.875 C6.37273437 1.03742188 7.37046875 1.19984375 8.3984375 1.3671875 C11 2 11 2 13 4 C2.77 3.67 -7.46 3.34 -18 3 C-18 2.67 -18 2.34 -18 2 C-12.06 2 -6.12 2 0 2 C0 1.34 0 0.68 0 0 Z " fill="#505050" transform="translate(250,290)"/>
<path d="M0 0 C1.8125 1.5 1.8125 1.5 3 3 C-0.49028148 4.59555725 -3.15402433 5.32049797 -7 5 C-7.33 4.67 -7.66 4.34 -8 4 C-10.32817964 3.63239269 -12.6618385 3.29758419 -15 3 C-10.44688003 0.37320002 -5.22223736 -0.5645662 0 0 Z M-3 1 C-3 1.66 -3 2.32 -3 3 C-2.34 3 -1.68 3 -1 3 C-1 2.34 -1 1.68 -1 1 C-1.66 1 -2.32 1 -3 1 Z " fill="#777775" transform="translate(358,276)"/>
<path d="M0 0 C0 3.6380219 -1.23871305 4.90254273 -3.55859375 7.5859375 C-5 9 -5 9 -7.75 10.625 C-10.19099766 11.77088084 -10.19099766 11.77088084 -10.625 14.125 C-10.74875 14.74375 -10.8725 15.3625 -11 16 C-11.99 16.33 -12.98 16.66 -14 17 C-14.99 16.34 -15.98 15.68 -17 15 C-15.21326795 13.4941255 -13.42046492 11.9954515 -11.625 10.5 C-10.62726563 9.6646875 -9.62953125 8.829375 -8.6015625 7.96875 C-6 6 -6 6 -4 6 C-3.566875 5.071875 -3.566875 5.071875 -3.125 4.125 C-2 2 -2 2 0 0 Z " fill="#919191" transform="translate(248,215)"/>
<path d="M0 0 C0.99 0.33 1.98 0.66 3 1 C3.36923077 7.52307692 3.36923077 7.52307692 1.5 9.9375 C1.005 10.288125 0.51 10.63875 0 11 C-0.103125 10.401875 -0.20625 9.80375 -0.3125 9.1875 C-1.08876455 6.71756736 -2.07088921 5.67748765 -4 4 C-2.68 2.68 -1.36 1.36 0 0 Z " fill="#A6A6A6" transform="translate(372,271)"/>
<path d="M0 0 C1.60488281 0.01450195 1.60488281 0.01450195 3.2421875 0.02929688 C4.35335938 0.05443359 5.46453125 0.07957031 6.609375 0.10546875 C8.29933594 0.12577148 8.29933594 0.12577148 10.0234375 0.14648438 C12.80256764 0.1818123 15.58072863 0.23114355 18.359375 0.29296875 C18.359375 0.95296875 18.359375 1.61296875 18.359375 2.29296875 C17.039375 2.62296875 15.719375 2.95296875 14.359375 3.29296875 C14.359375 2.63296875 14.359375 1.97296875 14.359375 1.29296875 C6.33529031 1.78984883 -1.65858122 2.31271776 -9.640625 3.29296875 C-6.3962604 0.37505992 -4.32206494 -0.06896912 0 0 Z " fill="#363636" transform="translate(314.640625,279.70703125)"/>
<path d="M0 0 C-0.66 0.66 -1.32 1.32 -2 2 C-1.67 2.66 -1.34 3.32 -1 4 C-1.99 4 -2.98 4 -4 4 C-4 3.34 -4 2.68 -4 2 C-5.01320312 2.34224609 -5.01320312 2.34224609 -6.046875 2.69140625 C-7.38492188 3.12259766 -7.38492188 3.12259766 -8.75 3.5625 C-9.63171875 3.85253906 -10.5134375 4.14257812 -11.421875 4.44140625 C-14.07834316 5.01697435 -15.47031106 4.89248371 -18 4 C-15.56592995 3.13475247 -13.12856816 2.28257135 -10.6875 1.4375 C-9.99720703 1.19064453 -9.30691406 0.94378906 -8.59570312 0.68945312 C-3.33984375 -1.11328125 -3.33984375 -1.11328125 0 0 Z " fill="#7F7F7F" transform="translate(208,243)"/>
<path d="M0 0 C0.33 0 0.66 0 1 0 C1.31012522 4.04572442 0.76289788 5.95277742 -1.75 9.125 C-2.26046875 9.78757813 -2.7709375 10.45015625 -3.296875 11.1328125 C-5.04882654 13.05353002 -6.87438755 14.51207129 -9 16 C-9.66 15.67 -10.32 15.34 -11 15 C-9.625 13.5 -9.625 13.5 -8 12 C-7.34 12 -6.68 12 -6 12 C-5.71382812 11.42765625 -5.42765625 10.8553125 -5.1328125 10.265625 C-3.421875 6.84375 -1.7109375 3.421875 0 0 Z " fill="#7C7C7C" transform="translate(241,202)"/>
<path d="M0 0 C1.32 0 2.64 0 4 0 C4.66 1.32 5.32 2.64 6 4 C4.35 4.66 2.7 5.32 1 6 C1 5.34 1 4.68 1 4 C0.01 3.67 -0.98 3.34 -2 3 C-1.34 2.01 -0.68 1.02 0 0 Z " fill="#F3F3F3" transform="translate(259,185)"/>
<path d="M0 0 C4.875 4.75 4.875 4.75 6 7 C3.5625 6.3125 3.5625 6.3125 1 5 C0.1875 2.375 0.1875 2.375 0 0 Z M-1 4 C-0.34 4.66 0.32 5.32 1 6 C0.01 7.485 0.01 7.485 -1 9 C-3.97 8.505 -3.97 8.505 -7 8 C-3.25 6 -3.25 6 -1 6 C-1 5.34 -1 4.68 -1 4 Z " fill="#929292" transform="translate(263,185)"/>
<path d="M0 0 C1.258125 -0.020625 2.51625 -0.04125 3.8125 -0.0625 C4.52019531 -0.07410156 5.22789062 -0.08570313 5.95703125 -0.09765625 C8 0 8 0 11 1 C11 1.66 11 2.32 11 3 C9.54176788 3.0270043 8.08339325 3.04639787 6.625 3.0625 C5.81289063 3.07410156 5.00078125 3.08570313 4.1640625 3.09765625 C2 3 2 3 0 2 C0 1.34 0 0.68 0 0 Z " fill="#494949" transform="translate(260,281)"/>
<path d="M0 0 C2.71121495 0.85617314 4.55388461 1.45249475 6.375 3.6875 C7.26232255 6.97059344 6.63470425 9.69953789 6 13 C5.67 13 5.34 13 5 13 C4.87625 11.1746875 4.87625 11.1746875 4.75 9.3125 C4.26241628 5.21534129 2.90489464 2.99860092 0 0 Z " fill="#8D8D8D" transform="translate(366,256)"/>
<path d="M0 0 C0.99 0 1.98 0 3 0 C3 0.66 3 1.32 3 2 C6.63 2 10.26 2 14 2 C14 2.66 14 3.32 14 4 C12.41676312 4.027193 10.83338938 4.04648306 9.25 4.0625 C7.92742187 4.07990234 7.92742187 4.07990234 6.578125 4.09765625 C4.2181162 4.00826198 2.25501476 3.66912821 0 3 C0 2.01 0 1.02 0 0 Z " fill="#515151" transform="translate(272,282)"/>
<path d="M0 0 C-2.96178773 1.67110042 -5.37071192 2.32682752 -8.75 2.625 C-9.54921875 2.69976562 -10.3484375 2.77453125 -11.171875 2.8515625 C-11.77515625 2.90054687 -12.3784375 2.94953125 -13 3 C-9.21656826 -0.94792877 -5.07874402 -0.29300446 0 0 Z " fill="#2C2C2C" transform="translate(318,280)"/>
<path d="M0 0 C2.9375 0.375 2.9375 0.375 6 1 C6.33 1.66 6.66 2.32 7 3 C4.36 3 1.72 3 -1 3 C-0.67 2.01 -0.34 1.02 0 0 Z " fill="#7C7C7C" transform="translate(337,279)"/>
<path d="M0 0 C2.9375 0.375 2.9375 0.375 6 1 C6.33 1.66 6.66 2.32 7 3 C4.69 3 2.38 3 0 3 C0 2.01 0 1.02 0 0 Z " fill="#F9F9F9" transform="translate(266,271)"/>
<path d="M0 0 C1.65 0.99 3.3 1.98 5 3 C4.67 3.99 4.34 4.98 4 6 C2.68 5.34 1.36 4.68 0 4 C0 2.68 0 1.36 0 0 Z " fill="#F8F8F8" transform="translate(249,202)"/>
<path d="M0 0 C1.98 0.99 1.98 0.99 4 2 C4 3.98 4 5.96 4 8 C3.01 8.495 3.01 8.495 2 9 C2.33 7.02 2.66 5.04 3 3 C2.01 3.33 1.02 3.66 0 4 C0 2.68 0 1.36 0 0 Z " fill="#606060" transform="translate(247,205)"/>
</svg>
